<svg width="524" height="122" viewBox="0 0 524 122" fill="none" xmlns="http://www.w3.org/2000/svg">
<path fill-rule="evenodd" clip-rule="evenodd" d="M50.9209 0C66.7384 -2.97377e-10 74.6482 -0.000106096 80.8867 2.58398C89.2045 6.02947 95.8134 12.6382 99.2588 20.9561C101.843 27.1946 101.843 35.1037 101.843 50.9209L101.838 56.4941C101.803 68.6898 101.52 75.428 99.2588 80.8867L98.9268 81.6611C95.3989 89.6143 88.9447 95.9209 80.8867 99.2588L80.2959 99.4932C74.1453 101.842 66.2439 101.843 50.9209 101.843L45.3486 101.838C33.5881 101.804 26.903 101.54 21.5459 99.4932L20.9561 99.2588C12.898 95.921 6.44394 89.6143 2.91602 81.6611L2.58398 80.8867C-0.000106096 74.6482 -2.96946e-10 66.7384 0 50.9209C2.07121e-10 35.1037 -7.77245e-05 27.1946 2.58398 20.9561C6.02945 12.6382 12.6382 6.02945 20.9561 2.58398C27.1946 -7.77245e-05 35.1037 2.06666e-10 50.9209 0ZM50.9209 11.3154C42.8577 11.3154 37.3768 11.3217 33.1172 11.6123C28.9592 11.896 26.7978 12.4134 25.2871 13.0391C19.7417 15.336 15.336 19.7417 13.0391 25.2871C12.4134 26.7978 11.896 28.9592 11.6123 33.1172C11.3217 37.3768 11.3154 42.8577 11.3154 50.9209C11.3154 58.9844 11.3217 64.4659 11.6123 68.7256C11.896 72.8836 12.4133 75.045 13.0391 76.5557C15.3361 82.101 19.7417 86.5067 25.2871 88.8037C26.7978 89.4294 28.9593 89.9468 33.1172 90.2305C37.3768 90.5211 42.8577 90.5264 50.9209 90.5264C58.9844 90.5264 64.4659 90.5211 68.7256 90.2305C72.8836 89.9468 75.045 89.4294 76.5557 88.8037C82.101 86.5067 86.5067 82.101 88.8037 76.5557C89.4294 75.045 89.9468 72.8836 90.2305 68.7256C90.5211 64.4659 90.5264 58.9844 90.5264 50.9209C90.5264 42.8577 90.5211 37.3768 90.2305 33.1172C89.9468 28.9593 89.4294 26.7978 88.8037 25.2871C86.5067 19.7417 82.101 15.3361 76.5557 13.0391C75.045 12.4133 72.8836 11.896 68.7256 11.6123C64.4659 11.3217 58.9844 11.3154 50.9209 11.3154Z" fill="white"/>
<circle cx="50.9215" cy="50.5531" r="16.9738" fill="#FF383C"/>
<path d="M488.038 100.189C464.964 100.189 452.897 90.3098 451.239 75.723L451.173 75.1263H477.429L477.562 75.6567C478.623 79.9002 481.938 82.4197 488.038 82.4197C493.276 82.4197 496.525 80.6295 496.525 77.7121V77.6458C496.525 74.9937 494.337 73.4687 488.303 72.3415L475.042 69.8883C460.522 67.2361 452.83 59.4786 452.83 48.1406V48.0743C452.83 32.8907 465.76 23.8071 487.043 23.8071C509.719 23.8071 521.256 35.0788 521.256 48.4058V48.87H496.591L496.525 48.2732C496.127 44.8254 492.878 41.5765 487.043 41.5765C482.07 41.5765 478.822 43.4331 478.822 46.5493V46.6156C478.822 49.2015 480.678 50.6602 487.308 51.9199L500.569 54.3732C516.349 57.2906 523.444 63.4568 523.444 74.5295V74.5958C523.444 90.3762 509.255 100.189 488.038 100.189Z" fill="white"/>
<path d="M409.269 100.189C385.532 100.189 371.078 85.8012 371.078 61.9981V61.9318C371.078 38.1288 385.532 23.8071 408.407 23.8071C431.215 23.8071 445.802 38.1288 445.802 60.4068V68.0981H397.599C397.865 76.5187 402.373 81.4914 409.799 81.4914C416.96 81.4914 420.474 77.1817 421.204 75.06L421.27 74.8611H445.471L445.272 75.723C443.084 85.2708 434.73 100.189 409.269 100.189ZM409.136 42.5048C403.235 42.5048 399.124 46.2178 397.931 52.7156H420.342C419.148 46.2178 415.037 42.5048 409.136 42.5048Z" fill="white"/>
<path d="M286.342 121.804V25.3984H313.526V38.5929H314.123C317.571 29.3103 325.328 23.8071 335.672 23.8071C354.104 23.8071 364.381 37.3994 364.381 61.9318V61.9981C364.381 86.3979 354.237 100.189 336.003 100.189C325.395 100.189 317.438 94.8185 314.057 85.9338H313.526V121.804H286.342ZM325.129 78.3089C332.224 78.3089 336.799 72.0763 336.799 61.9981V61.9318C336.799 51.721 332.157 45.6874 325.129 45.6874C318.035 45.6874 313.394 51.721 313.394 61.9981V62.0644C313.394 72.2752 317.968 78.3089 325.129 78.3089Z" fill="white"/>
<path d="M227.994 99.5261C213.209 99.5261 203.13 89.9783 203.13 77.3806V77.3143C203.13 63.1916 214.004 55.434 233.498 54.108L248.88 53.1134V50.1297C248.88 45.8863 246.162 43.2341 240.592 43.2341C235.023 43.2341 231.906 45.6874 231.309 48.6711L231.177 49.3341H206.91L206.976 48.4721C208.103 33.5538 220.767 23.8071 242.117 23.8071C262.472 23.8071 276.065 33.9516 276.065 48.8037V98.5978H248.88V88.6523H248.35C244.239 95.6142 237.409 99.5261 227.994 99.5261ZM229.652 75.3915C229.652 79.2371 232.901 81.2925 237.94 81.2925C244.438 81.2925 248.88 77.7121 248.88 72.872V68.2307L238.006 69.0263C232.238 69.4241 229.652 71.6785 229.652 75.3252V75.3915Z" fill="white"/>
<path d="M159.038 98.5978V25.1995H133.843V2.92139H212.346V25.1995H187.151V98.5978H159.038Z" fill="white"/>
</svg>
