<svg width="546" height="102" viewBox="0 0 546 102" fill="none" xmlns="http://www.w3.org/2000/svg">
<rect x="5.65793" y="5.65793" width="90.5268" height="90.5268" rx="28.2896" stroke="#14202F" stroke-width="11.3159"/>
<circle cx="50.9738" cy="50.9738" r="16.9738" fill="#FF1D1D"/>
<path d="M503.2 1.35931C528.793 1.35931 542.386 12.7639 543.182 30.666L543.248 32.124H517.39L517.323 31.4619C516.793 26.224 511.223 22.9083 503.532 22.9081C495.775 22.9081 491.796 26.2899 491.796 30.666V30.7324C491.796 35.0418 495.907 37.0974 505.454 38.8212L515.068 40.5449C535.556 44.2578 545.302 52.6121 545.303 68.1269V68.1933C545.303 87.9517 529.921 100.483 503.532 100.483C478.734 100.483 463.352 89.875 462.357 70.9785L462.291 69.7187H488.149L488.282 70.3154C489.409 75.487 495.907 78.9345 503.863 78.9345C512.284 78.9345 517.455 75.4867 517.455 70.7128V70.6474C517.455 66.1387 513.609 64.2821 503.001 62.3593L493.388 60.6347C474.358 57.2532 463.948 47.6391 463.948 32.787V32.7216C463.948 13.4935 480.524 1.35932 503.2 1.35931Z" fill="#14202F"/>
<path d="M196.346 25.3613H171.15V98.7597H143.038V25.3613H117.843V3.08295H196.346V25.3613Z" fill="#14202F"/>
<path fill-rule="evenodd" clip-rule="evenodd" d="M286.453 98.7597H256.882L251.909 79.7304H223.266L218.293 98.7597H188.722L219.95 3.08295H255.224L286.453 98.7597ZM228.437 59.9052H246.737L237.852 25.8915H237.322L228.437 59.9052Z" fill="#14202F"/>
<path fill-rule="evenodd" clip-rule="evenodd" d="M337.839 3.08295C360.249 3.08311 374.372 16.7419 374.372 37.9589V38.0917C374.372 59.3088 360.249 72.6355 337.839 72.6357H323.185V98.7597H295.072V3.08295H337.839ZM323.185 51.8828H331.141C340.424 51.8828 345.994 47.2417 345.994 38.0917V37.9589C345.994 28.8091 340.424 24.2343 331.141 24.2343H323.185V51.8828Z" fill="#14202F"/>
<path d="M451.814 25.3613H412.431V40.6113H449.361V61.2978H412.431V76.4814H451.814V98.7597H384.317V3.08295H451.814V25.3613Z" fill="#14202F"/>
</svg>
